<svg xmlns="http://www.w3.org/2000/svg" viewBox="0 0 320 330">
  <path d="M 166 284 L 161 285 L 156 286 L 151 286 L 146 285 L 141 284 L 136 281 L 132 276 L 131 275" fill="none" stroke="#243b78" stroke-width="2" stroke-linecap="round" stroke-linejoin="round"/>
  <path d="M 170 145 L 165 143 L 160 142 L 155 142 L 150 143 L 146 144" fill="none" stroke="#243b78" stroke-width="2" stroke-linecap="round" stroke-linejoin="round"/>
  <path d="M 134 47 L 135 52 L 135 57 L 135 62 L 139 64 L 144 64 L 149 65 L 154 65 L 159 66 L 163 66" fill="none" stroke="#243b78" stroke-width="2" stroke-linecap="round" stroke-linejoin="round"/>
  <path d="M 167 233 L 162 232 L 157 232 L 152 235 L 150 238" fill="none" stroke="#243b78" stroke-width="2" stroke-linecap="round" stroke-linejoin="round"/>
  <path d="M 130 273 L 129 268 L 129 263 L 128 258 L 128 253 L 128 248 L 128 243 L 128 238 L 128 233 L 128 228 L 128 223 L 128 218 L 128 213 L 128 208 L 128 203 L 128 198 L 128 193 L 128 188 L 128 183 L 128 178 L 128 173 L 129 168 L 130 163 L 130 162" fill="none" stroke="#243b78" stroke-width="2" stroke-linecap="round" stroke-linejoin="round"/>
  <path d="M 169 119 L 164 121 L 159 121 L 154 121 L 149 121" fill="none" stroke="#243b78" stroke-width="2" stroke-linecap="round" stroke-linejoin="round"/>
  <path d="M 183 106 L 185 101 L 185 96 L 185 91 L 185 86 L 183 81 L 182 79" fill="none" stroke="#243b78" stroke-width="2" stroke-linecap="round" stroke-linejoin="round"/>
  <path d="M 144 145 L 139 148 L 135 153 L 132 158 L 131 160" fill="none" stroke="#243b78" stroke-width="2" stroke-linecap="round" stroke-linejoin="round"/>
  <path d="M 181 250 L 180 245 L 177 240 L 172 235 L 169 234" fill="none" stroke="#243b78" stroke-width="2" stroke-linecap="round" stroke-linejoin="round"/>
</svg>
