<svg xmlns="http://www.w3.org/2000/svg" viewBox="0 0 320 330">
  <path d="M 120 0 L 125 0 L 130 1 L 135 2 L 140 3 L 145 3 L 150 3 L 155 3 L 160 3 L 165 2 L 170 2 L 174 1" fill="none" stroke="#243b78" stroke-width="2" stroke-linecap="round" stroke-linejoin="round"/>
  <path d="M 115 195 L 114 190 L 114 185 L 114 180 L 114 175 L 115 170 L 115 167" fill="none" stroke="#243b78" stroke-width="2" stroke-linecap="round" stroke-linejoin="round"/>
  <path d="M 142 135 L 147 133 L 152 132 L 157 132 L 162 131 L 167 132 L 172 132 L 177 133 L 182 134 L 184 135" fill="none" stroke="#243b78" stroke-width="2" stroke-linecap="round" stroke-linejoin="round"/>
  <path d="M 143 228 L 148 230 L 153 230 L 158 231 L 163 231 L 168 231 L 173 230 L 178 230 L 183 228 L 188 226 L 193 223 L 196 220" fill="none" stroke="#243b78" stroke-width="2" stroke-linecap="round" stroke-linejoin="round"/>
  <path d="M 209 201 L 210 196 L 211 191 L 212 186 L 212 181 L 211 176 L 211 171 L 209 166 L 209 163" fill="none" stroke="#243b78" stroke-width="2" stroke-linecap="round" stroke-linejoin="round"/>
</svg>
