<?xml version="1.0" encoding="UTF-8"?>
<svg xmlns="http://www.w3.org/2000/svg" viewBox="0 0 107 137" role="img" aria-label="Centerline draft for ក from khmer-alphabet.svg">
  <g fill="none" stroke="#111" stroke-width="1.4" stroke-linecap="round" stroke-linejoin="round">
  <path d="M 53.0 60.0 L 53.0 55.0 L 50.0 53.0" />
  <path d="M 71.0 51.0 L 64.0 50.0" />
  <path d="M 71.0 51.0 L 72.0 52.0" />
  <path d="M 82.0 19.0 L 83.0 27.0" />
  <path d="M 27.0 50.0 L 26.0 49.0" />
  <path d="M 27.0 50.0 L 32.0 51.0" />
  <path d="M 33.0 52.0 L 32.0 51.0" />
  <path d="M 33.0 52.0 L 34.0 58.0 L 31.0 61.0" />
  <path d="M 84.0 72.0 L 80.0 72.0 L 78.0 76.0 L 85.0 80.0 L 93.0 80.0 L 97.0 78.0" />
  <path d="M 89.0 53.0 L 89.0 60.0" />
  <path d="M 98.0 29.0 L 98.0 77.0" />
  <path d="M 74.0 41.0 L 64.0 42.0 L 62.0 44.0 L 63.0 49.0" />
  <path d="M 47.0 89.0 L 104.0 89.0" />
  <path d="M 27.0 42.0 L 32.0 41.0" />
  <path d="M 69.0 62.0 L 70.0 63.0" />
  <path d="M 87.0 62.0 L 77.0 65.0 L 70.0 63.0" />
  <path d="M 48.0 134.0 L 44.0 133.0" />
  <path d="M 98.0 77.0 L 97.0 78.0" />
  <path d="M 87.0 41.0 L 80.0 43.0 L 81.0 49.0" />
  <path d="M 66.0 60.0 L 68.0 61.0" />
  <path d="M 63.0 49.0 L 64.0 50.0" />
  <path d="M 83.0 27.0 L 84.0 28.0" />
  <path d="M 84.0 28.0 L 96.0 27.0" />
  <path d="M 25.0 44.0 L 26.0 49.0" />
  <path d="M 23.0 133.0 L 28.0 132.0 L 33.0 134.0 L 42.0 132.0" />
  <path d="M 45.0 62.0 L 50.0 63.0" />
  <path d="M 81.0 49.0 L 82.0 50.0" />
  <path d="M 52.0 41.0 L 45.0 42.0 L 43.0 45.0 L 44.0 60.0" />
  <path d="M 82.0 50.0 L 87.0 51.0" />
  <path d="M 72.0 52.0 L 71.0 57.0" />
  </g>
</svg>
